<?xml version="1.0" encoding="UTF-8" standalone="no"?>
<!DOCTYPE svg PUBLIC "-//W3C//DTD SVG 1.1//EN" "http://www.w3.org/Graphics/SVG/1.1/DTD/svg11.dtd">
<svg width="100%" height="100%" viewBox="0 0 1020 260" version="1.1" xmlns="http://www.w3.org/2000/svg" xmlns:xlink="http://www.w3.org/1999/xlink" xml:space="preserve" xmlns:serif="http://www.serif.com/" style="fill-rule:evenodd;clip-rule:evenodd;stroke-linejoin:round;stroke-miterlimit:1.41421;">
    <g id="po" transform="matrix(1.13092,0,0,1.12682,-1.18997,-199.533)">
        <text x="289.527px" y="175.576px" style="font-family:'AndaleMono', 'Andale Mono', monospace;font-size:24.366px;">______    ______</text>
        <text x="274.905px" y="199.941px" style="font-family:'AndaleMono', 'Andale Mono', monospace;font-size:24.366px;">/      \  /      \</text>
        <text x="260.283px" y="224.307px" style="font-family:'AndaleMono', 'Andale Mono', monospace;font-size:24.366px;">/██████  |/██████  |  The Future of po-util:</text>
        <text x="260.283px" y="248.673px" style="font-family:'AndaleMono', 'Andale Mono', monospace;font-size:24.366px;">██ |  ██ |██ |  ██ |</text>
        <text x="260.283px" y="273.038px" style="font-family:'AndaleMono', 'Andale Mono', monospace;font-size:24.366px;">██ |__██ |██ \__██ |      Refactored,</text>
        <text x="260.283px" y="297.404px" style="font-family:'AndaleMono', 'Andale Mono', monospace;font-size:24.366px;">██    ██/ ██    ██/ <tspan x="581.891px " y="297.404px "> </tspan>   Modular,</text>
        <text x="260.283px" y="321.77px" style="font-family:'AndaleMono', 'Andale Mono', monospace;font-size:24.366px;">███████/   ██████/        Cross-Compatible</text>
        <text x="260.283px" y="346.135px" style="font-family:'AndaleMono', 'Andale Mono', monospace;font-size:24.366px;">██ |</text>
        <text x="260.283px" y="370.501px" style="font-family:'AndaleMono', 'Andale Mono', monospace;font-size:24.366px;">██ |</text>
        <text x="260.283px" y="394.867px" style="font-family:'AndaleMono', 'Andale Mono', monospace;font-size:24.366px;">██/  https://po-util.com</text>
    </g>
    <g id="qr-code" serif:id="qr code" transform="matrix(1.27387,0,0,1.26926,132.353,131.513)">
        <g transform="matrix(1,0,0,1,-100,-100)">
            <rect x="0" y="0" width="200" height="200" style="fill:white;"/>
            <rect x="12" y="12" width="7" height="7"/>
            <rect x="19" y="12" width="7" height="7"/>
            <rect x="26" y="12" width="7" height="7"/>
            <rect x="33" y="12" width="7" height="7"/>
            <rect x="40" y="12" width="7" height="7"/>
            <rect x="47" y="12" width="7" height="7"/>
            <rect x="54" y="12" width="7" height="7"/>
            <rect x="75" y="12" width="7" height="7"/>
            <rect x="96" y="12" width="7" height="7"/>
            <rect x="103" y="12" width="7" height="7"/>
            <rect x="110" y="12" width="7" height="7"/>
            <rect x="117" y="12" width="7" height="7"/>
            <rect x="138" y="12" width="7" height="7"/>
            <rect x="145" y="12" width="7" height="7"/>
            <rect x="152" y="12" width="7" height="7"/>
            <rect x="159" y="12" width="7" height="7"/>
            <rect x="166" y="12" width="7" height="7"/>
            <rect x="173" y="12" width="7" height="7"/>
            <rect x="180" y="12" width="7" height="7"/>
            <rect x="12" y="19" width="7" height="7"/>
            <rect x="54" y="19" width="7" height="7"/>
            <rect x="82" y="19" width="7" height="7"/>
            <rect x="89" y="19" width="7" height="7"/>
            <rect x="96" y="19" width="7" height="7"/>
            <rect x="110" y="19" width="7" height="7"/>
            <rect x="117" y="19" width="7" height="7"/>
            <rect x="124" y="19" width="7" height="7"/>
            <rect x="138" y="19" width="7" height="7"/>
            <rect x="180" y="19" width="7" height="7"/>
            <rect x="12" y="26" width="7" height="7"/>
            <rect x="26" y="26" width="7" height="7"/>
            <rect x="33" y="26" width="7" height="7"/>
            <rect x="40" y="26" width="7" height="7"/>
            <rect x="54" y="26" width="7" height="7"/>
            <rect x="68" y="26" width="7" height="7"/>
            <rect x="75" y="26" width="7" height="7"/>
            <rect x="82" y="26" width="7" height="7"/>
            <rect x="96" y="26" width="7" height="7"/>
            <rect x="117" y="26" width="7" height="7"/>
            <rect x="124" y="26" width="7" height="7"/>
            <rect x="138" y="26" width="7" height="7"/>
            <rect x="152" y="26" width="7" height="7"/>
            <rect x="159" y="26" width="7" height="7"/>
            <rect x="166" y="26" width="7" height="7"/>
            <rect x="180" y="26" width="7" height="7"/>
            <rect x="12" y="33" width="7" height="7"/>
            <rect x="26" y="33" width="7" height="7"/>
            <rect x="33" y="33" width="7" height="7"/>
            <rect x="40" y="33" width="7" height="7"/>
            <rect x="54" y="33" width="7" height="7"/>
            <rect x="75" y="33" width="7" height="7"/>
            <rect x="82" y="33" width="7" height="7"/>
            <rect x="89" y="33" width="7" height="7"/>
            <rect x="110" y="33" width="7" height="7"/>
            <rect x="117" y="33" width="7" height="7"/>
            <rect x="138" y="33" width="7" height="7"/>
            <rect x="152" y="33" width="7" height="7"/>
            <rect x="159" y="33" width="7" height="7"/>
            <rect x="166" y="33" width="7" height="7"/>
            <rect x="180" y="33" width="7" height="7"/>
            <rect x="12" y="40" width="7" height="7"/>
            <rect x="26" y="40" width="7" height="7"/>
            <rect x="33" y="40" width="7" height="7"/>
            <rect x="40" y="40" width="7" height="7"/>
            <rect x="54" y="40" width="7" height="7"/>
            <rect x="82" y="40" width="7" height="7"/>
            <rect x="103" y="40" width="7" height="7"/>
            <rect x="110" y="40" width="7" height="7"/>
            <rect x="117" y="40" width="7" height="7"/>
            <rect x="138" y="40" width="7" height="7"/>
            <rect x="152" y="40" width="7" height="7"/>
            <rect x="159" y="40" width="7" height="7"/>
            <rect x="166" y="40" width="7" height="7"/>
            <rect x="180" y="40" width="7" height="7"/>
            <rect x="12" y="47" width="7" height="7"/>
            <rect x="54" y="47" width="7" height="7"/>
            <rect x="75" y="47" width="7" height="7"/>
            <rect x="103" y="47" width="7" height="7"/>
            <rect x="110" y="47" width="7" height="7"/>
            <rect x="117" y="47" width="7" height="7"/>
            <rect x="138" y="47" width="7" height="7"/>
            <rect x="180" y="47" width="7" height="7"/>
            <rect x="12" y="54" width="7" height="7"/>
            <rect x="19" y="54" width="7" height="7"/>
            <rect x="26" y="54" width="7" height="7"/>
            <rect x="33" y="54" width="7" height="7"/>
            <rect x="40" y="54" width="7" height="7"/>
            <rect x="47" y="54" width="7" height="7"/>
            <rect x="54" y="54" width="7" height="7"/>
            <rect x="68" y="54" width="7" height="7"/>
            <rect x="82" y="54" width="7" height="7"/>
            <rect x="96" y="54" width="7" height="7"/>
            <rect x="110" y="54" width="7" height="7"/>
            <rect x="124" y="54" width="7" height="7"/>
            <rect x="138" y="54" width="7" height="7"/>
            <rect x="145" y="54" width="7" height="7"/>
            <rect x="152" y="54" width="7" height="7"/>
            <rect x="159" y="54" width="7" height="7"/>
            <rect x="166" y="54" width="7" height="7"/>
            <rect x="173" y="54" width="7" height="7"/>
            <rect x="180" y="54" width="7" height="7"/>
            <rect x="68" y="61" width="7" height="7"/>
            <rect x="75" y="61" width="7" height="7"/>
            <rect x="82" y="61" width="7" height="7"/>
            <rect x="96" y="61" width="7" height="7"/>
            <rect x="103" y="61" width="7" height="7"/>
            <rect x="110" y="61" width="7" height="7"/>
            <rect x="124" y="61" width="7" height="7"/>
            <rect x="12" y="68" width="7" height="7"/>
            <rect x="19" y="68" width="7" height="7"/>
            <rect x="26" y="68" width="7" height="7"/>
            <rect x="40" y="68" width="7" height="7"/>
            <rect x="47" y="68" width="7" height="7"/>
            <rect x="54" y="68" width="7" height="7"/>
            <rect x="61" y="68" width="7" height="7"/>
            <rect x="68" y="68" width="7" height="7"/>
            <rect x="82" y="68" width="7" height="7"/>
            <rect x="89" y="68" width="7" height="7"/>
            <rect x="110" y="68" width="7" height="7"/>
            <rect x="117" y="68" width="7" height="7"/>
            <rect x="124" y="68" width="7" height="7"/>
            <rect x="131" y="68" width="7" height="7"/>
            <rect x="138" y="68" width="7" height="7"/>
            <rect x="166" y="68" width="7" height="7"/>
            <rect x="12" y="75" width="7" height="7"/>
            <rect x="19" y="75" width="7" height="7"/>
            <rect x="26" y="75" width="7" height="7"/>
            <rect x="33" y="75" width="7" height="7"/>
            <rect x="47" y="75" width="7" height="7"/>
            <rect x="68" y="75" width="7" height="7"/>
            <rect x="82" y="75" width="7" height="7"/>
            <rect x="89" y="75" width="7" height="7"/>
            <rect x="131" y="75" width="7" height="7"/>
            <rect x="138" y="75" width="7" height="7"/>
            <rect x="180" y="75" width="7" height="7"/>
            <rect x="12" y="82" width="7" height="7"/>
            <rect x="19" y="82" width="7" height="7"/>
            <rect x="26" y="82" width="7" height="7"/>
            <rect x="33" y="82" width="7" height="7"/>
            <rect x="47" y="82" width="7" height="7"/>
            <rect x="54" y="82" width="7" height="7"/>
            <rect x="75" y="82" width="7" height="7"/>
            <rect x="103" y="82" width="7" height="7"/>
            <rect x="124" y="82" width="7" height="7"/>
            <rect x="131" y="82" width="7" height="7"/>
            <rect x="152" y="82" width="7" height="7"/>
            <rect x="166" y="82" width="7" height="7"/>
            <rect x="173" y="82" width="7" height="7"/>
            <rect x="180" y="82" width="7" height="7"/>
            <rect x="19" y="89" width="7" height="7"/>
            <rect x="26" y="89" width="7" height="7"/>
            <rect x="47" y="89" width="7" height="7"/>
            <rect x="89" y="89" width="7" height="7"/>
            <rect x="117" y="89" width="7" height="7"/>
            <rect x="124" y="89" width="7" height="7"/>
            <rect x="138" y="89" width="7" height="7"/>
            <rect x="145" y="89" width="7" height="7"/>
            <rect x="173" y="89" width="7" height="7"/>
            <rect x="40" y="96" width="7" height="7"/>
            <rect x="54" y="96" width="7" height="7"/>
            <rect x="61" y="96" width="7" height="7"/>
            <rect x="96" y="96" width="7" height="7"/>
            <rect x="117" y="96" width="7" height="7"/>
            <rect x="124" y="96" width="7" height="7"/>
            <rect x="138" y="96" width="7" height="7"/>
            <rect x="145" y="96" width="7" height="7"/>
            <rect x="159" y="96" width="7" height="7"/>
            <rect x="173" y="96" width="7" height="7"/>
            <rect x="180" y="96" width="7" height="7"/>
            <rect x="19" y="103" width="7" height="7"/>
            <rect x="26" y="103" width="7" height="7"/>
            <rect x="33" y="103" width="7" height="7"/>
            <rect x="40" y="103" width="7" height="7"/>
            <rect x="68" y="103" width="7" height="7"/>
            <rect x="89" y="103" width="7" height="7"/>
            <rect x="96" y="103" width="7" height="7"/>
            <rect x="103" y="103" width="7" height="7"/>
            <rect x="124" y="103" width="7" height="7"/>
            <rect x="131" y="103" width="7" height="7"/>
            <rect x="138" y="103" width="7" height="7"/>
            <rect x="159" y="103" width="7" height="7"/>
            <rect x="180" y="103" width="7" height="7"/>
            <rect x="12" y="110" width="7" height="7"/>
            <rect x="47" y="110" width="7" height="7"/>
            <rect x="54" y="110" width="7" height="7"/>
            <rect x="68" y="110" width="7" height="7"/>
            <rect x="82" y="110" width="7" height="7"/>
            <rect x="89" y="110" width="7" height="7"/>
            <rect x="96" y="110" width="7" height="7"/>
            <rect x="110" y="110" width="7" height="7"/>
            <rect x="131" y="110" width="7" height="7"/>
            <rect x="145" y="110" width="7" height="7"/>
            <rect x="166" y="110" width="7" height="7"/>
            <rect x="173" y="110" width="7" height="7"/>
            <rect x="180" y="110" width="7" height="7"/>
            <rect x="19" y="117" width="7" height="7"/>
            <rect x="26" y="117" width="7" height="7"/>
            <rect x="33" y="117" width="7" height="7"/>
            <rect x="40" y="117" width="7" height="7"/>
            <rect x="68" y="117" width="7" height="7"/>
            <rect x="82" y="117" width="7" height="7"/>
            <rect x="96" y="117" width="7" height="7"/>
            <rect x="103" y="117" width="7" height="7"/>
            <rect x="110" y="117" width="7" height="7"/>
            <rect x="117" y="117" width="7" height="7"/>
            <rect x="152" y="117" width="7" height="7"/>
            <rect x="173" y="117" width="7" height="7"/>
            <rect x="12" y="124" width="7" height="7"/>
            <rect x="33" y="124" width="7" height="7"/>
            <rect x="40" y="124" width="7" height="7"/>
            <rect x="47" y="124" width="7" height="7"/>
            <rect x="54" y="124" width="7" height="7"/>
            <rect x="61" y="124" width="7" height="7"/>
            <rect x="68" y="124" width="7" height="7"/>
            <rect x="75" y="124" width="7" height="7"/>
            <rect x="82" y="124" width="7" height="7"/>
            <rect x="89" y="124" width="7" height="7"/>
            <rect x="110" y="124" width="7" height="7"/>
            <rect x="117" y="124" width="7" height="7"/>
            <rect x="124" y="124" width="7" height="7"/>
            <rect x="131" y="124" width="7" height="7"/>
            <rect x="138" y="124" width="7" height="7"/>
            <rect x="145" y="124" width="7" height="7"/>
            <rect x="152" y="124" width="7" height="7"/>
            <rect x="159" y="124" width="7" height="7"/>
            <rect x="68" y="131" width="7" height="7"/>
            <rect x="89" y="131" width="7" height="7"/>
            <rect x="110" y="131" width="7" height="7"/>
            <rect x="117" y="131" width="7" height="7"/>
            <rect x="124" y="131" width="7" height="7"/>
            <rect x="152" y="131" width="7" height="7"/>
            <rect x="159" y="131" width="7" height="7"/>
            <rect x="173" y="131" width="7" height="7"/>
            <rect x="180" y="131" width="7" height="7"/>
            <rect x="12" y="138" width="7" height="7"/>
            <rect x="19" y="138" width="7" height="7"/>
            <rect x="26" y="138" width="7" height="7"/>
            <rect x="33" y="138" width="7" height="7"/>
            <rect x="40" y="138" width="7" height="7"/>
            <rect x="47" y="138" width="7" height="7"/>
            <rect x="54" y="138" width="7" height="7"/>
            <rect x="68" y="138" width="7" height="7"/>
            <rect x="82" y="138" width="7" height="7"/>
            <rect x="103" y="138" width="7" height="7"/>
            <rect x="117" y="138" width="7" height="7"/>
            <rect x="124" y="138" width="7" height="7"/>
            <rect x="138" y="138" width="7" height="7"/>
            <rect x="152" y="138" width="7" height="7"/>
            <rect x="159" y="138" width="7" height="7"/>
            <rect x="173" y="138" width="7" height="7"/>
            <rect x="180" y="138" width="7" height="7"/>
            <rect x="12" y="145" width="7" height="7"/>
            <rect x="54" y="145" width="7" height="7"/>
            <rect x="68" y="145" width="7" height="7"/>
            <rect x="75" y="145" width="7" height="7"/>
            <rect x="82" y="145" width="7" height="7"/>
            <rect x="89" y="145" width="7" height="7"/>
            <rect x="124" y="145" width="7" height="7"/>
            <rect x="152" y="145" width="7" height="7"/>
            <rect x="159" y="145" width="7" height="7"/>
            <rect x="180" y="145" width="7" height="7"/>
            <rect x="12" y="152" width="7" height="7"/>
            <rect x="26" y="152" width="7" height="7"/>
            <rect x="33" y="152" width="7" height="7"/>
            <rect x="40" y="152" width="7" height="7"/>
            <rect x="54" y="152" width="7" height="7"/>
            <rect x="68" y="152" width="7" height="7"/>
            <rect x="96" y="152" width="7" height="7"/>
            <rect x="124" y="152" width="7" height="7"/>
            <rect x="131" y="152" width="7" height="7"/>
            <rect x="138" y="152" width="7" height="7"/>
            <rect x="145" y="152" width="7" height="7"/>
            <rect x="152" y="152" width="7" height="7"/>
            <rect x="159" y="152" width="7" height="7"/>
            <rect x="180" y="152" width="7" height="7"/>
            <rect x="12" y="159" width="7" height="7"/>
            <rect x="26" y="159" width="7" height="7"/>
            <rect x="33" y="159" width="7" height="7"/>
            <rect x="40" y="159" width="7" height="7"/>
            <rect x="54" y="159" width="7" height="7"/>
            <rect x="75" y="159" width="7" height="7"/>
            <rect x="89" y="159" width="7" height="7"/>
            <rect x="96" y="159" width="7" height="7"/>
            <rect x="103" y="159" width="7" height="7"/>
            <rect x="117" y="159" width="7" height="7"/>
            <rect x="145" y="159" width="7" height="7"/>
            <rect x="152" y="159" width="7" height="7"/>
            <rect x="159" y="159" width="7" height="7"/>
            <rect x="166" y="159" width="7" height="7"/>
            <rect x="12" y="166" width="7" height="7"/>
            <rect x="26" y="166" width="7" height="7"/>
            <rect x="33" y="166" width="7" height="7"/>
            <rect x="40" y="166" width="7" height="7"/>
            <rect x="54" y="166" width="7" height="7"/>
            <rect x="68" y="166" width="7" height="7"/>
            <rect x="89" y="166" width="7" height="7"/>
            <rect x="96" y="166" width="7" height="7"/>
            <rect x="110" y="166" width="7" height="7"/>
            <rect x="117" y="166" width="7" height="7"/>
            <rect x="124" y="166" width="7" height="7"/>
            <rect x="131" y="166" width="7" height="7"/>
            <rect x="152" y="166" width="7" height="7"/>
            <rect x="180" y="166" width="7" height="7"/>
            <rect x="12" y="173" width="7" height="7"/>
            <rect x="54" y="173" width="7" height="7"/>
            <rect x="68" y="173" width="7" height="7"/>
            <rect x="75" y="173" width="7" height="7"/>
            <rect x="96" y="173" width="7" height="7"/>
            <rect x="103" y="173" width="7" height="7"/>
            <rect x="110" y="173" width="7" height="7"/>
            <rect x="124" y="173" width="7" height="7"/>
            <rect x="152" y="173" width="7" height="7"/>
            <rect x="159" y="173" width="7" height="7"/>
            <rect x="173" y="173" width="7" height="7"/>
            <rect x="12" y="180" width="7" height="7"/>
            <rect x="19" y="180" width="7" height="7"/>
            <rect x="26" y="180" width="7" height="7"/>
            <rect x="33" y="180" width="7" height="7"/>
            <rect x="40" y="180" width="7" height="7"/>
            <rect x="47" y="180" width="7" height="7"/>
            <rect x="54" y="180" width="7" height="7"/>
            <rect x="68" y="180" width="7" height="7"/>
            <rect x="75" y="180" width="7" height="7"/>
            <rect x="89" y="180" width="7" height="7"/>
            <rect x="110" y="180" width="7" height="7"/>
            <rect x="117" y="180" width="7" height="7"/>
            <rect x="124" y="180" width="7" height="7"/>
            <rect x="131" y="180" width="7" height="7"/>
            <rect x="138" y="180" width="7" height="7"/>
            <rect x="145" y="180" width="7" height="7"/>
            <rect x="173" y="180" width="7" height="7"/>
            <rect x="180" y="180" width="7" height="7"/>
        </g>
    </g>
</svg>
